<svg id="Layer_1" data-name="Layer 1" xmlns="http://www.w3.org/2000/svg" viewBox="0 0 500 500"><defs><style>.cls-1{fill:#b3814b;}.cls-2{opacity:0.2;}.cls-3{fill:#513b2c;}.cls-4{fill:none;stroke:#000;stroke-linecap:round;stroke-linejoin:round;stroke-width:20.07px;}</style></defs><title>cookie</title><path class="cls-1" d="M476.59,267.86a52.31,52.31,0,0,1-45.89-77.42A65.42,65.42,0,0,1,345.83,128c0-1.34.12-2.64.2-4a65.19,65.19,0,0,1-84-82.61,56.23,56.23,0,0,1-12,1.32,56.34,56.34,0,0,1-49.57-29.51C92.22,36.25,11,132.31,11,247.37c0,132.2,107.17,239.37,239.38,239.37,125.81,0,228.88-97.08,238.56-220.41A52.66,52.66,0,0,1,476.59,267.86Z"/><path class="cls-2" d="M476.59,267.86a52.89,52.89,0,0,1-8.6-.76c-39.1,95.75-133,163.27-242.87,163.27A261.64,261.64,0,0,1,32.23,345.81c37.54,83.08,121.08,140.93,218.18,140.93,125.81,0,228.88-97.08,238.56-220.41A52.66,52.66,0,0,1,476.59,267.86Z"/><circle class="cls-3" cx="206.05" cy="295.32" r="56"/><path class="cls-3" d="M11.06,248.35a39.35,39.35,0,1,0,9.3-67.11A239.32,239.32,0,0,0,11,247.37C11,247.7,11.06,248,11.06,248.35Z"/><circle class="cls-3" cx="179.13" cy="119.79" r="30.71"/><circle class="cls-3" cx="372.99" cy="328.42" r="30.71"/><path class="cls-3" d="M250.41,486.74c7,0,13.82-.34,20.62-.92a46.4,46.4,0,0,0,.65-7.41,45.81,45.81,0,0,0-91.57-2.18A239.29,239.29,0,0,0,250.41,486.74Z"/><circle class="cls-4" cx="206.05" cy="295.32" r="56"/><path class="cls-4" d="M11.06,248.35a39.35,39.35,0,1,0,9.3-67.11A239.32,239.32,0,0,0,11,247.37C11,247.7,11.06,248,11.06,248.35Z"/><circle class="cls-4" cx="179.13" cy="119.79" r="30.71"/><circle class="cls-4" cx="372.99" cy="328.42" r="30.71"/><path class="cls-4" d="M250.41,486.74c7,0,13.82-.34,20.62-.92a46.4,46.4,0,0,0,.65-7.41,45.81,45.81,0,0,0-91.57-2.18A239.29,239.29,0,0,0,250.41,486.74Z"/><path class="cls-4" d="M476.59,267.86a52.31,52.31,0,0,1-45.89-77.42A65.42,65.42,0,0,1,345.83,128c0-1.34.12-2.64.2-4a65.19,65.19,0,0,1-84-82.61,56.23,56.23,0,0,1-12,1.32,56.34,56.34,0,0,1-49.57-29.51C92.22,36.25,11,132.31,11,247.37c0,132.2,107.17,239.37,239.38,239.37,125.81,0,228.88-97.08,238.56-220.41A52.66,52.66,0,0,1,476.59,267.86Z"/></svg>