<svg width="512" height="512" viewBox="0 0 512 512" fill="none" xmlns="http://www.w3.org/2000/svg">
<g clip-path="url(#clip0_222_129)">
<path d="M489.143 66.915V445.164C489.143 465.342 470.695 480.484 450.903 476.55L266.079 439.808C258.384 438.278 250.461 438.287 242.769 439.835L61.1697 476.376C41.358 480.363 22.8571 465.214 22.8571 445.005V66.9149C22.8571 46.7215 41.3315 31.5761 61.1329 35.5364L250.92 73.4937C254.273 74.1645 257.727 74.1645 261.08 73.4937L450.867 35.5364C470.668 31.5761 489.143 46.7215 489.143 66.915Z" fill="url(#paint0_linear_222_129)" stroke="url(#paint1_linear_222_129)" stroke-width="45.7143"/>
<path d="M207.238 424.357L237.714 418.262L246.857 417.524V459.404V477.452C246.857 481.615 242.776 484.553 238.828 483.232L227.048 479.29L218.058 490.32C214.436 494.764 207.238 492.203 207.238 486.469V459.404V424.357Z" fill="#D91818"/>
<path d="M250.215 363.218C242.023 363.218 233.636 362.536 225.054 361.17C216.667 360 208.572 358.245 200.77 355.904C193.163 353.563 186.337 350.638 180.29 347.127C175.999 344.786 172.976 341.763 171.221 338.057C169.465 334.156 168.782 330.255 169.173 326.354C169.758 322.453 171.221 319.04 173.561 316.114C176.097 312.994 179.218 311.043 182.923 310.263C186.824 309.288 191.115 309.97 195.797 312.311C203.794 316.797 212.473 320.113 221.835 322.258C231.393 324.404 240.853 325.477 250.215 325.477C264.453 325.477 274.596 323.331 280.642 319.04C286.689 314.554 289.712 308.995 289.712 302.363C289.712 296.707 287.567 292.221 283.275 288.905C278.984 285.589 271.475 282.761 260.747 280.421L227.687 273.399C208.962 269.498 195.016 262.866 185.849 253.504C176.877 243.947 172.391 231.464 172.391 216.055C172.391 206.302 174.439 197.428 178.535 189.431C182.631 181.434 188.385 174.51 195.797 168.658C203.208 162.807 211.986 158.321 222.128 155.2C232.466 152.079 243.778 150.519 256.066 150.519C266.989 150.519 277.717 151.884 288.249 154.615C298.782 157.15 308.047 160.954 316.043 166.025C319.944 168.366 322.578 171.389 323.943 175.095C325.503 178.606 325.991 182.214 325.406 185.92C325.016 189.431 323.553 192.552 321.017 195.282C318.677 198.013 315.653 199.768 311.947 200.549C308.242 201.329 303.755 200.451 298.489 197.915C292.053 194.6 285.226 192.162 278.009 190.601C270.792 189.041 263.381 188.261 255.774 188.261C247.582 188.261 240.56 189.333 234.709 191.479C229.052 193.624 224.664 196.648 221.543 200.549C218.617 204.45 217.154 208.936 217.154 214.007C217.154 219.663 219.202 224.247 223.298 227.758C227.394 231.269 234.514 234.097 244.656 236.242L277.717 243.264C296.831 247.36 311.07 253.992 320.432 263.159C329.794 272.131 334.475 284.029 334.475 298.853C334.475 308.605 332.525 317.48 328.624 325.477C324.723 333.278 319.067 340.008 311.655 345.664C304.243 351.32 295.368 355.709 285.031 358.83C274.693 361.755 263.088 363.218 250.215 363.218Z" fill="#D91818"/>
</g>
<defs>
<linearGradient id="paint0_linear_222_129" x1="212.558" y1="254.448" x2="313.406" y2="254.448" gradientUnits="userSpaceOnUse">
<stop stop-color="white"/>
<stop offset="0.520833" stop-color="white"/>
<stop offset="1" stop-color="white"/>
</linearGradient>
<linearGradient id="paint1_linear_222_129" x1="-4.65455" y1="23.2727" x2="480.97" y2="493.382" gradientUnits="userSpaceOnUse">
<stop stop-color="#F13636"/>
<stop offset="1" stop-color="#F13636"/>
</linearGradient>
<clipPath id="clip0_222_129">
<rect width="512" height="512" fill="white"/>
</clipPath>
</defs>
</svg>
